# Blender v2.79 (sub 0) OBJ File: 'LOOP_subdiv.blend'
# www.blender.org
mtllib cross.mtl
o Cube
v 1.819889 1.729329 1.504709
v 1.819889 3.729329 1.504709
v 1.819889 1.729329 -0.495291
v 1.819889 3.729329 -0.495291
v 3.819889 1.729329 1.504709
v 3.819889 3.729329 1.504709
v 3.819889 1.729329 -0.495291
v 3.819889 3.729329 -0.495291
v 1.819889 5.380697 1.504709
v 1.819889 5.380697 -0.495291
v 3.819889 5.380697 -0.495291
v 3.819889 5.380697 1.504709
v 1.819889 6.669649 1.504709
v 1.819889 6.669649 -0.495291
v 3.819889 6.669649 -0.495291
v 3.819889 6.669649 1.504709
v 1.819889 7.783234 1.504709
v 1.819889 7.783234 -0.495291
v 3.819889 7.783234 -0.495291
v 3.819889 7.783234 1.504709
v 3.819889 5.380697 3.310069
v 1.819889 5.380697 3.310069
v 3.819889 6.669649 3.310069
v 1.819889 6.669649 3.310069
v 0.429374 5.380697 1.504709
v 0.429374 5.380697 -0.495291
v 0.429374 6.669649 1.504709
v 0.429374 6.669649 -0.495291
v 5.584634 5.380697 -0.495291
v 5.584634 5.380697 1.504709
v 5.584634 6.669649 -0.495291
v 5.584634 6.669649 1.504709
v 1.819889 5.380697 -1.992184
v 3.819889 5.380697 -1.992184
v 1.819889 6.669649 -1.992184
v 3.819889 6.669649 -1.992184
vn -1.0000 0.0000 0.0000
vn 0.0000 0.0000 -1.0000
vn 1.0000 0.0000 0.0000
vn 0.0000 0.0000 1.0000
vn 0.0000 -1.0000 0.0000
vn 0.0000 1.0000 0.0000
usemtl None
s off
f 2//1 3//1 1//1
f 4//2 7//2 3//2
f 8//3 5//3 7//3
f 6//4 1//4 5//4
f 7//5 1//5 3//5
f 8//3 12//3 6//3
f 11//5 30//5 12//5
f 2//1 10//1 4//1
f 6//4 9//4 2//4
f 4//2 11//2 8//2
f 16//4 17//4 13//4
f 9//5 26//5 10//5
f 16//3 21//3 12//3
f 15//6 35//6 14//6
f 18//6 20//6 19//6
f 14//2 19//2 15//2
f 15//3 20//3 16//3
f 13//1 18//1 14//1
f 21//4 24//4 22//4
f 13//6 23//6 16//6
f 12//5 22//5 9//5
f 9//1 24//1 13//1
f 25//1 28//1 26//1
f 13//4 25//4 9//4
f 14//6 27//6 13//6
f 10//2 28//2 14//2
f 29//3 32//3 30//3
f 12//4 32//4 16//4
f 15//2 29//2 11//2
f 16//6 31//6 15//6
f 33//2 36//2 34//2
f 10//5 34//5 11//5
f 11//3 36//3 15//3
f 14//1 33//1 10//1
f 2//1 4//1 3//1
f 4//2 8//2 7//2
f 8//3 6//3 5//3
f 6//4 2//4 1//4
f 7//5 5//5 1//5
f 8//3 11//3 12//3
f 11//5 29//5 30//5
f 2//1 9//1 10//1
f 6//4 12//4 9//4
f 4//2 10//2 11//2
f 16//4 20//4 17//4
f 9//5 25//5 26//5
f 16//3 23//3 21//3
f 15//6 36//6 35//6
f 18//6 17//6 20//6
f 14//2 18//2 19//2
f 15//3 19//3 20//3
f 13//1 17//1 18//1
f 21//4 23//4 24//4
f 13//6 24//6 23//6
f 12//5 21//5 22//5
f 9//1 22//1 24//1
f 25//1 27//1 28//1
f 13//4 27//4 25//4
f 14//6 28//6 27//6
f 10//2 26//2 28//2
f 29//3 31//3 32//3
f 12//4 30//4 32//4
f 15//2 31//2 29//2
f 16//6 32//6 31//6
f 33//2 35//2 36//2
f 10//5 33//5 34//5
f 11//3 34//3 36//3
f 14//1 35//1 33//1
o Icosphere_Icosphere.019
v 0.551900 2.012155 -1.698661
v 0.575338 2.013441 -1.739256
v 0.606190 2.025774 -1.792693
v 0.636825 2.051201 -1.845755
v 0.505025 2.013441 -1.698661
v 0.443321 2.025774 -1.698661
v 0.382051 2.051201 -1.698661
v 0.575338 2.013441 -1.658066
v 0.606190 2.025774 -1.604628
v 0.636825 2.051201 -1.551567
v 0.619030 2.017299 -1.698661
v 0.653969 2.031116 -1.751158
v 0.684713 2.057133 -1.804408
v 0.653969 2.031116 -1.646163
v 0.691645 2.046825 -1.698661
v 0.721195 2.072589 -1.752161
v 0.684713 2.057133 -1.592913
v 0.721195 2.072589 -1.645161
v 0.746730 2.095231 -1.698661
v 0.518335 2.017299 -1.756797
v 0.455401 2.031116 -1.760806
v 0.393914 2.057133 -1.760806
v 0.546330 2.031116 -1.813304
v 0.482028 2.046825 -1.819683
v 0.420920 2.072589 -1.818524
v 0.577074 2.057133 -1.866553
v 0.513585 2.072589 -1.872025
v 0.454485 2.095231 -1.867389
v 0.518335 2.017299 -1.640525
v 0.546330 2.031116 -1.584018
v 0.577074 2.057133 -1.530768
v 0.455401 2.031116 -1.636515
v 0.482028 2.046825 -1.577638
v 0.513585 2.072589 -1.525297
v 0.393914 2.057133 -1.636515
v 0.420920 2.072589 -1.578797
v 0.454485 2.095231 -1.529933
v 0.676214 2.260783 -1.913979
v 0.706607 2.275980 -1.885431
v 0.739521 2.292436 -1.835564
v 0.763416 2.304384 -1.770830
v 0.636294 2.275980 -1.926026
v 0.576652 2.292436 -1.929597
v 0.508642 2.304384 -1.917923
v 0.683169 2.229105 -1.926026
v 0.685231 2.183857 -1.929597
v 0.678492 2.134535 -1.917923
v 0.728726 2.236692 -1.888661
v 0.763786 2.250750 -1.836372
v 0.787433 2.262573 -1.770830
v 0.733477 2.190130 -1.888870
v 0.769555 2.202645 -1.833605
v 0.792448 2.215095 -1.768574
v 0.726379 2.140466 -1.876577
v 0.761560 2.153318 -1.822074
v 0.783189 2.168148 -1.761808
v 0.661597 2.303822 -1.888661
v 0.601098 2.322509 -1.888870
v 0.532514 2.334332 -1.876577
v 0.692027 2.322509 -1.836372
v 0.629810 2.342390 -1.833605
v 0.561376 2.353502 -1.822074
v 0.715673 2.334332 -1.770830
v 0.654041 2.353502 -1.768574
v 0.588359 2.362978 -1.761808
v 0.628032 2.236692 -1.946797
v 0.625838 2.190130 -1.951015
v 0.618740 2.140466 -1.938722
v 0.565218 2.250750 -1.951015
v 0.559938 2.202645 -1.954627
v 0.553950 2.153318 -1.941938
v 0.496634 2.262573 -1.938722
v 0.492173 2.215095 -1.941938
v 0.490943 2.168148 -1.930536
v 0.303272 2.260783 -1.698661
v 0.312799 2.275980 -1.739256
v 0.339528 2.292436 -1.792693
v 0.383642 2.304384 -1.845755
v 0.312799 2.275980 -1.658066
v 0.339528 2.292436 -1.604628
v 0.383642 2.304384 -1.551567
v 0.289362 2.229105 -1.698661
v 0.285238 2.183857 -1.698661
v 0.298717 2.134535 -1.698661
v 0.298942 2.236692 -1.756797
v 0.326696 2.250750 -1.813304
v 0.371634 2.262573 -1.866553
v 0.296386 2.190130 -1.760806
v 0.326208 2.202645 -1.819683
v 0.371079 2.215095 -1.872025
v 0.310581 2.140466 -1.760806
v 0.340191 2.153318 -1.818524
v 0.381568 2.168148 -1.867389
v 0.332507 2.303822 -1.698661
v 0.362576 2.322509 -1.646163
v 0.407514 2.334332 -1.592913
v 0.362576 2.322509 -1.751158
v 0.396080 2.342390 -1.698661
v 0.440283 2.353502 -1.645161
v 0.407514 2.334332 -1.804408
v 0.440283 2.353502 -1.752161
v 0.478984 2.362978 -1.698661
v 0.298942 2.236692 -1.640525
v 0.296386 2.190130 -1.636515
v 0.310581 2.140466 -1.636515
v 0.326696 2.250750 -1.584018
v 0.326208 2.202645 -1.577638
v 0.340191 2.153318 -1.578797
v 0.371634 2.262573 -1.530768
v 0.371079 2.215095 -1.525297
v 0.381568 2.168148 -1.529933
v 0.676214 2.260783 -1.483342
v 0.636294 2.275980 -1.471296
v 0.576652 2.292436 -1.467725
v 0.508642 2.304384 -1.479398
v 0.706607 2.275980 -1.511891
v 0.739521 2.292436 -1.561757
v 0.763416 2.304384 -1.626492
v 0.683169 2.229105 -1.471296
v 0.685231 2.183857 -1.467725
v 0.678492 2.134535 -1.479398
v 0.628032 2.236692 -1.450525
v 0.565218 2.250750 -1.446307
v 0.496634 2.262573 -1.458599
v 0.625838 2.190130 -1.446307
v 0.559938 2.202645 -1.442694
v 0.492173 2.215095 -1.455383
v 0.618740 2.140466 -1.458599
v 0.553950 2.153318 -1.455383
v 0.490943 2.168148 -1.466785
v 0.661597 2.303822 -1.508661
v 0.692027 2.322509 -1.560950
v 0.715673 2.334332 -1.626492
v 0.601098 2.322509 -1.508452
v 0.629810 2.342390 -1.563717
v 0.654041 2.353502 -1.628747
v 0.532514 2.334332 -1.520745
v 0.561376 2.353502 -1.575247
v 0.588359 2.362978 -1.635513
v 0.728726 2.236692 -1.508661
v 0.733477 2.190130 -1.508452
v 0.726379 2.140466 -1.520745
v 0.763786 2.250750 -1.560950
v 0.769555 2.202645 -1.563717
v 0.761560 2.153318 -1.575247
v 0.787433 2.262573 -1.626492
v 0.792448 2.215095 -1.628747
v 0.783189 2.168148 -1.635513
v 0.482022 2.126578 -1.491927
v 0.540688 2.108168 -1.483282
v 0.603550 2.094025 -1.486916
v 0.662505 2.088022 -1.507088
v 0.709452 2.094025 -1.548059
v 0.744030 2.108168 -1.600682
v 0.765876 2.126578 -1.655810
v 0.765876 2.126578 -1.741511
v 0.744030 2.108168 -1.796640
v 0.709452 2.094025 -1.849263
v 0.662505 2.088022 -1.890234
v 0.603550 2.094025 -1.910406
v 0.540688 2.108168 -1.914039
v 0.482022 2.126578 -1.905394
v 0.407803 2.126578 -1.862544
v 0.370983 2.108168 -1.816060
v 0.342699 2.094025 -1.759804
v 0.330691 2.088022 -1.698661
v 0.342699 2.094025 -1.637518
v 0.370983 2.108168 -1.581261
v 0.407803 2.126578 -1.534777
v 0.790615 2.176057 -1.698661
v 0.800598 2.221304 -1.698661
v 0.796403 2.267926 -1.698661
v 0.773110 2.309231 -1.698661
v 0.725801 2.338528 -1.698661
v 0.665037 2.356865 -1.698661
v 0.601379 2.365293 -1.698661
v 0.527161 2.365293 -1.741511
v 0.495332 2.356865 -1.796640
v 0.464950 2.338528 -1.849263
v 0.441295 2.309231 -1.890234
v 0.429649 2.267926 -1.910406
v 0.427551 2.221304 -1.914039
v 0.432543 2.176057 -1.905394
v 0.527161 2.365293 -1.655810
v 0.495332 2.356865 -1.600682
v 0.464950 2.338528 -1.548059
v 0.441295 2.309231 -1.507088
v 0.429649 2.267926 -1.486916
v 0.427551 2.221304 -1.483282
v 0.432543 2.176057 -1.491927
v 0.551900 2.366065 -1.698661
v 0.775151 2.142813 -1.698661
v 0.440275 2.142813 -1.892002
v 0.440275 2.142813 -1.505320
vn -0.0764 0.9971 0.0000
vn -0.2012 0.9728 0.1152
vn -0.3261 0.9110 0.2525
vn -0.4503 0.7967 0.4032
vn -0.2012 0.9728 -0.1152
vn -0.3767 0.9264 0.0000
vn -0.5202 0.8460 0.1166
vn -0.6512 0.7207 0.2378
vn -0.3261 0.9110 -0.2525
vn -0.5202 0.8460 -0.1166
vn -0.6601 0.7512 0.0000
vn -0.7762 0.6220 0.1035
vn -0.4503 0.7967 -0.4032
vn -0.6512 0.7207 -0.2378
vn -0.7762 0.6220 -0.1035
vn -0.8585 0.5128 0.0000
vn 0.0382 0.9971 0.0662
vn 0.2003 0.9728 0.1167
vn 0.3818 0.9110 0.1562
vn 0.5743 0.7967 0.1883
vn 0.0009 0.9728 0.2318
vn 0.1883 0.9263 0.3262
vn 0.3611 0.8460 0.3922
vn 0.5316 0.7207 0.4450
vn -0.0556 0.9110 0.4087
vn 0.1591 0.8460 0.5088
vn 0.3300 0.7512 0.5717
vn 0.4777 0.6220 0.6204
vn -0.1241 0.7967 0.5916
vn 0.1196 0.7207 0.6829
vn 0.2984 0.6220 0.7239
vn 0.4293 0.5128 0.7435
vn 0.0382 0.9971 -0.0662
vn 0.0009 0.9728 -0.2318
vn -0.0556 0.9110 -0.4087
vn -0.1241 0.7967 -0.5916
vn 0.2003 0.9728 -0.1167
vn 0.1883 0.9263 -0.3262
vn 0.1591 0.8460 -0.5088
vn 0.1196 0.7207 -0.6829
vn 0.3818 0.9110 -0.1562
vn 0.3611 0.8460 -0.3922
vn 0.3300 0.7512 -0.5717
vn 0.2984 0.6220 -0.7239
vn 0.5743 0.7967 -0.1883
vn 0.5316 0.7207 -0.4450
vn 0.4777 0.6220 -0.6204
vn 0.4293 0.5128 -0.7435
vn -0.5377 -0.3821 0.7516
vn -0.6901 -0.4246 0.5860
vn -0.8002 -0.4663 0.3771
vn -0.8598 -0.4894 0.1458
vn -0.6309 -0.0786 0.7718
vn -0.8229 -0.0762 0.5631
vn -0.9332 -0.0870 0.3488
vn -0.9875 -0.0936 0.1266
vn -0.6455 0.2638 0.7168
vn -0.8381 0.2451 0.4874
vn -0.9332 0.2211 0.2834
vn -0.9734 0.2099 0.0917
vn -0.5834 0.5566 0.5915
vn -0.7747 0.5082 0.3764
vn -0.8694 0.4532 0.1970
vn -0.9098 0.4120 0.0495
vn -0.4136 -0.5619 0.7164
vn -0.2279 -0.7070 0.6695
vn -0.0330 -0.7974 0.6026
vn 0.1543 -0.8420 0.5169
vn -0.4659 -0.7070 0.5321
vn -0.2593 -0.8550 0.4492
vn -0.0892 -0.9227 0.3751
vn 0.0638 -0.9524 0.2982
vn -0.5053 -0.7974 0.3299
vn -0.2802 -0.9227 0.2648
vn -0.1205 -0.9705 0.2087
vn 0.0093 -0.9888 0.1487
vn -0.5248 -0.8420 0.1248
vn -0.2901 -0.9524 0.0938
vn -0.1334 -0.9888 0.0663
vn -0.0211 -0.9991 0.0366
vn -0.3821 -0.3821 0.8414
vn -0.3529 -0.0786 0.9323
vn -0.2980 0.2638 0.9174
vn -0.2205 0.5566 0.8010
vn -0.1624 -0.4246 0.8907
vn -0.0762 -0.0762 0.9942
vn -0.0031 0.2451 0.9695
vn 0.0614 0.5082 0.8591
vn 0.0735 -0.4663 0.8815
vn 0.1645 -0.0870 0.9825
vn 0.2211 0.2211 0.9499
vn 0.2641 0.4532 0.8514
vn 0.3037 -0.4894 0.8175
vn 0.3841 -0.0936 0.9185
vn 0.4073 0.2099 0.8888
vn 0.4120 0.4120 0.8127
vn 0.9198 -0.3821 0.0898
vn 0.8526 -0.4246 0.3047
vn 0.7267 -0.4663 0.5044
vn 0.5561 -0.4894 0.6717
vn 0.9839 -0.0786 0.1605
vn 0.8991 -0.0762 0.4311
vn 0.7686 -0.0870 0.6338
vn 0.6034 -0.0936 0.7919
vn 0.9435 0.2638 0.2006
vn 0.8412 0.2451 0.4821
vn 0.7120 0.2211 0.6664
vn 0.5661 0.2099 0.7972
vn 0.8039 0.5566 0.2095
vn 0.7133 0.5082 0.4827
vn 0.6053 0.4532 0.6544
vn 0.4978 0.4120 0.7632
vn 0.8272 -0.5619 0.0000
vn 0.6937 -0.7070 -0.1374
vn 0.5384 -0.7974 -0.2727
vn 0.3705 -0.8420 -0.3921
vn 0.6937 -0.7070 0.1374
vn 0.5187 -0.8550 0.0000
vn 0.3694 -0.9227 -0.1102
vn 0.2263 -0.9524 -0.2044
vn 0.5384 -0.7974 0.2727
vn 0.3694 -0.9227 0.1102
vn 0.2410 -0.9705 0.0000
vn 0.1241 -0.9888 -0.0824
vn 0.3705 -0.8420 0.3921
vn 0.2263 -0.9524 0.2044
vn 0.1241 -0.9888 0.0824
vn 0.0423 -0.9991 0.0000
vn 0.9198 -0.3821 -0.0898
vn 0.9839 -0.0786 -0.1605
vn 0.9435 0.2638 -0.2006
vn 0.8039 0.5566 -0.2095
vn 0.8526 -0.4246 -0.3047
vn 0.8991 -0.0762 -0.4311
vn 0.8412 0.2451 -0.4821
vn 0.7133 0.5082 -0.4827
vn 0.7267 -0.4663 -0.5044
vn 0.7686 -0.0870 -0.6338
vn 0.7120 0.2211 -0.6664
vn 0.6053 0.4532 -0.6544
vn 0.5561 -0.4894 -0.6717
vn 0.6034 -0.0936 -0.7919
vn 0.5661 0.2099 -0.7972
vn 0.4978 0.4120 -0.7632
vn -0.3821 -0.3821 -0.8414
vn -0.1625 -0.4246 -0.8907
vn 0.0735 -0.4663 -0.8815
vn 0.3037 -0.4894 -0.8175
vn -0.3529 -0.0786 -0.9323
vn -0.0762 -0.0762 -0.9942
vn 0.1645 -0.0870 -0.9825
vn 0.3841 -0.0936 -0.9185
vn -0.2980 0.2638 -0.9174
vn -0.0031 0.2451 -0.9695
vn 0.2211 0.2211 -0.9499
vn 0.4073 0.2099 -0.8888
vn -0.2205 0.5566 -0.8010
vn 0.0614 0.5082 -0.8591
vn 0.2641 0.4532 -0.8514
vn 0.4120 0.4120 -0.8127
vn -0.4136 -0.5619 -0.7164
vn -0.4659 -0.7070 -0.5321
vn -0.5053 -0.7974 -0.3299
vn -0.5248 -0.8420 -0.1248
vn -0.2279 -0.7070 -0.6695
vn -0.2593 -0.8550 -0.4492
vn -0.2802 -0.9227 -0.2648
vn -0.2901 -0.9524 -0.0938
vn -0.0330 -0.7974 -0.6026
vn -0.0892 -0.9227 -0.3751
vn -0.1205 -0.9705 -0.2087
vn -0.1334 -0.9888 -0.0663
vn 0.1543 -0.8420 -0.5169
vn 0.0638 -0.9524 -0.2982
vn 0.0093 -0.9888 -0.1487
vn -0.0211 -0.9991 -0.0366
vn -0.5377 -0.3821 -0.7516
vn -0.6310 -0.0786 -0.7718
vn -0.6455 0.2638 -0.7168
vn -0.5834 0.5566 -0.5915
vn -0.6901 -0.4246 -0.5860
vn -0.8229 -0.0762 -0.5631
vn -0.8381 0.2451 -0.4874
vn -0.7747 0.5082 -0.3764
vn -0.8002 -0.4663 -0.3771
vn -0.9332 -0.0870 -0.3488
vn -0.9332 0.2211 -0.2834
vn -0.8694 0.4532 -0.1970
vn -0.8598 -0.4894 -0.1458
vn -0.9875 -0.0936 -0.1266
vn -0.9734 0.2099 -0.0917
vn -0.9098 0.4120 -0.0495
usemtl mat0.016
s off
f 37//7 44//7 47//7 38//7
f 38//8 47//8 48//8 39//8
f 39//9 48//9 49//9 40//9
f 40//10 49//10 194//10 195//10
f 44//11 45//11 50//11 47//11
f 47//12 50//12 51//12 48//12
f 48//13 51//13 52//13 49//13
f 49//14 52//14 193//14 194//14
f 45//15 46//15 53//15 50//15
f 50//16 53//16 54//16 51//16
f 51//17 54//17 55//17 52//17
f 52//18 55//18 192//18 193//18
f 46//19 188//19 189//19 53//19
f 53//20 189//20 190//20 54//20
f 54//21 190//21 191//21 55//21
f 55//22 191//22 228//22 192//22
f 37//23 38//23 56//23 41//23
f 41//24 56//24 57//24 42//24
f 42//25 57//25 58//25 43//25
f 43//26 58//26 201//26 202//26
f 38//27 39//27 59//27 56//27
f 56//28 59//28 60//28 57//28
f 57//29 60//29 61//29 58//29
f 58//30 61//30 200//30 201//30
f 39//31 40//31 62//31 59//31
f 59//32 62//32 63//32 60//32
f 60//33 63//33 64//33 61//33
f 61//34 64//34 199//34 200//34
f 40//35 195//35 196//35 62//35
f 62//36 196//36 197//36 63//36
f 63//37 197//37 198//37 64//37
f 64//38 198//38 229//38 199//38
f 37//39 41//39 65//39 44//39
f 44//40 65//40 66//40 45//40
f 45//41 66//41 67//41 46//41
f 46//42 67//42 187//42 188//42
f 41//43 42//43 68//43 65//43
f 65//44 68//44 69//44 66//44
f 66//45 69//45 70//45 67//45
f 67//46 70//46 186//46 187//46
f 42//47 43//47 71//47 68//47
f 68//48 71//48 72//48 69//48
f 69//49 72//49 73//49 70//49
f 70//50 73//50 185//50 186//50
f 43//51 202//51 203//51 71//51
f 71//52 203//52 204//52 72//52
f 72//53 204//53 205//53 73//53
f 73//54 205//54 230//54 185//54
f 74//55 81//55 84//55 75//55
f 75//56 84//56 85//56 76//56
f 76//57 85//57 86//57 77//57
f 77//58 86//58 208//58 209//58
f 81//59 82//59 87//59 84//59
f 84//60 87//60 88//60 85//60
f 85//61 88//61 89//61 86//61
f 86//62 89//62 207//62 208//62
f 82//63 83//63 90//63 87//63
f 87//64 90//64 91//64 88//64
f 88//65 91//65 92//65 89//65
f 89//66 92//66 206//66 207//66
f 83//67 195//67 194//67 90//67
f 90//68 194//68 193//68 91//68
f 91//69 193//69 192//69 92//69
f 92//70 192//70 228//70 206//70
f 74//71 75//71 93//71 78//71
f 78//72 93//72 94//72 79//72
f 79//73 94//73 95//73 80//73
f 80//74 95//74 215//74 216//74
f 75//75 76//75 96//75 93//75
f 93//76 96//76 97//76 94//76
f 94//77 97//77 98//77 95//77
f 95//78 98//78 214//78 215//78
f 76//79 77//79 99//79 96//79
f 96//80 99//80 100//80 97//80
f 97//81 100//81 101//81 98//81
f 98//82 101//82 213//82 214//82
f 77//83 209//83 210//83 99//83
f 99//84 210//84 211//84 100//84
f 100//85 211//85 212//85 101//85
f 101//86 212//86 227//86 213//86
f 74//87 78//87 102//87 81//87
f 81//88 102//88 103//88 82//88
f 82//89 103//89 104//89 83//89
f 83//90 104//90 196//90 195//90
f 78//91 79//91 105//91 102//91
f 102//92 105//92 106//92 103//92
f 103//93 106//93 107//93 104//93
f 104//94 107//94 197//94 196//94
f 79//95 80//95 108//95 105//95
f 105//96 108//96 109//96 106//96
f 106//97 109//97 110//97 107//97
f 107//98 110//98 198//98 197//98
f 80//99 216//99 217//99 108//99
f 108//100 217//100 218//100 109//100
f 109//101 218//101 219//101 110//101
f 110//102 219//102 229//102 198//102
f 111//103 118//103 121//103 112//103
f 112//104 121//104 122//104 113//104
f 113//105 122//105 123//105 114//105
f 114//106 123//106 217//106 216//106
f 118//107 119//107 124//107 121//107
f 121//108 124//108 125//108 122//108
f 122//109 125//109 126//109 123//109
f 123//110 126//110 218//110 217//110
f 119//111 120//111 127//111 124//111
f 124//112 127//112 128//112 125//112
f 125//113 128//113 129//113 126//113
f 126//114 129//114 219//114 218//114
f 120//115 202//115 201//115 127//115
f 127//116 201//116 200//116 128//116
f 128//117 200//117 199//117 129//117
f 129//118 199//118 229//118 219//118
f 111//119 112//119 130//119 115//119
f 115//120 130//120 131//120 116//120
f 116//121 131//121 132//121 117//121
f 117//122 132//122 222//122 223//122
f 112//123 113//123 133//123 130//123
f 130//124 133//124 134//124 131//124
f 131//125 134//125 135//125 132//125
f 132//126 135//126 221//126 222//126
f 113//127 114//127 136//127 133//127
f 133//128 136//128 137//128 134//128
f 134//129 137//129 138//129 135//129
f 135//130 138//130 220//130 221//130
f 114//131 216//131 215//131 136//131
f 136//132 215//132 214//132 137//132
f 137//133 214//133 213//133 138//133
f 138//134 213//134 227//134 220//134
f 111//135 115//135 139//135 118//135
f 118//136 139//136 140//136 119//136
f 119//137 140//137 141//137 120//137
f 120//138 141//138 203//138 202//138
f 115//139 116//139 142//139 139//139
f 139//140 142//140 143//140 140//140
f 140//141 143//141 144//141 141//141
f 141//142 144//142 204//142 203//142
f 116//143 117//143 145//143 142//143
f 142//144 145//144 146//144 143//144
f 143//145 146//145 147//145 144//145
f 144//146 147//146 205//146 204//146
f 117//147 223//147 224//147 145//147
f 145//148 224//148 225//148 146//148
f 146//149 225//149 226//149 147//149
f 147//150 226//150 230//150 205//150
f 148//151 155//151 158//151 149//151
f 149//152 158//152 159//152 150//152
f 150//153 159//153 160//153 151//153
f 151//154 160//154 224//154 223//154
f 155//155 156//155 161//155 158//155
f 158//156 161//156 162//156 159//156
f 159//157 162//157 163//157 160//157
f 160//158 163//158 225//158 224//158
f 156//159 157//159 164//159 161//159
f 161//160 164//160 165//160 162//160
f 162//161 165//161 166//161 163//161
f 163//162 166//162 226//162 225//162
f 157//163 188//163 187//163 164//163
f 164//164 187//164 186//164 165//164
f 165//165 186//165 185//165 166//165
f 166//166 185//166 230//166 226//166
f 148//167 149//167 167//167 152//167
f 152//168 167//168 168//168 153//168
f 153//169 168//169 169//169 154//169
f 154//170 169//170 210//170 209//170
f 149//171 150//171 170//171 167//171
f 167//172 170//172 171//172 168//172
f 168//173 171//173 172//173 169//173
f 169//174 172//174 211//174 210//174
f 150//175 151//175 173//175 170//175
f 170//176 173//176 174//176 171//176
f 171//177 174//177 175//177 172//177
f 172//178 175//178 212//178 211//178
f 151//179 223//179 222//179 173//179
f 173//180 222//180 221//180 174//180
f 174//181 221//181 220//181 175//181
f 175//182 220//182 227//182 212//182
f 148//183 152//183 176//183 155//183
f 155//184 176//184 177//184 156//184
f 156//185 177//185 178//185 157//185
f 157//186 178//186 189//186 188//186
f 152//187 153//187 179//187 176//187
f 176//188 179//188 180//188 177//188
f 177//189 180//189 181//189 178//189
f 178//190 181//190 190//190 189//190
f 153//191 154//191 182//191 179//191
f 179//192 182//192 183//192 180//192
f 180//193 183//193 184//193 181//193
f 181//194 184//194 191//194 190//194
f 154//195 209//195 208//195 182//195
f 182//196 208//196 207//196 183//196
f 183//197 207//197 206//197 184//197
f 184//198 206//198 228//198 191//198
